<svg xmlns="http://www.w3.org/2000/svg" viewBox="0 0 112.39 120.01"><defs><style>.cls-1{fill:#6457a1;}.cls-2{fill:#fff;}</style></defs><g id="Camada_2" data-name="Camada 2"><g id="Camada_1-2" data-name="Camada 1"><path class="cls-1" d="M111,57.31l-40.56,59.1a8,8,0,0,1-6.78,3.6,9.14,9.14,0,0,1-2.52-.36A8.08,8.08,0,0,1,55.41,112V78.13a2.81,2.81,0,0,0-2.94-2.58l-24.18-.3A8.25,8.25,0,0,1,21,70.87a8,8,0,0,1,.54-8.16l40.5-59.1A8.28,8.28,0,0,1,71.37.37a8.08,8.08,0,0,1,5.76,7.68V41.89a2.81,2.81,0,0,0,2.94,2.58l24.18.3A8.05,8.05,0,0,1,111,57.31Z"/><path class="cls-2" d="M90.87,57.31l-40.56,59.1a8,8,0,0,1-6.78,3.6,9.14,9.14,0,0,1-2.52-.36A8.08,8.08,0,0,1,35.25,112V78.13a2.81,2.81,0,0,0-2.94-2.58l-24.18-.3A8.25,8.25,0,0,1,.87,70.87a8,8,0,0,1,.54-8.16l40.5-59.1A8.28,8.28,0,0,1,51.21.37,8.08,8.08,0,0,1,57,8.05V41.89a2.81,2.81,0,0,0,2.94,2.58l24.18.3a8.05,8.05,0,0,1,6.78,12.54Z"/></g></g></svg>